<?xml version="1.0" encoding="UTF-8"?>
<svg id="Layer_2" data-name="Layer 2" xmlns="http://www.w3.org/2000/svg" viewBox="0 0 1019.98 1080">
  <defs>
    <style>
      .cls-1 {
        fill: #fff;
      }
    </style>
  </defs>
  <g id="Layer_1-2" data-name="Layer 1">
    <g>
      <path class="cls-1" d="m402.51,229.78c-8.26-88.46,36.77-155.89,88-220.5,10.02-12.64,26.68-12.13,34.88.09,34.86,51.94,74.29,101.81,94.9,161.6,11.2,32.49,4.37,67.84,3.19,101.97-.08,2.19.59,4.41.91,6.62,1.93-1.19,4.14-2.1,5.77-3.62,48.43-45.1,107.2-68.26,171.17-79.62,23.73-4.22,37.14,7.33,29.73,31.2-30.72,99.05-91.22,174.96-181.39,226.77-7.8,4.48-16.45,7.05-23.77-.14-10.76-10.55-6.84-23.85-3.48-35.62,15.01-52.64,53.51-85.9,96.83-114.91.72-.48,1.68-.62,2.53-.91-1.4,1.72-2.65,3.59-4.22,5.13-33.81,33.13-68.44,65.71-76.96,115.64-.49,2.85.22,5.9.38,8.86,2.65-1.27,5.57-2.17,7.92-3.86,64.99-46.78,111.59-107.82,140.86-182.22.71-1.79.57-3.92.83-5.89-1.35.16-2.71.24-4.04.51-63.22,12.83-119.78,39.42-163.49,87.39-17.38,19.07-16.01,47.81-21.42,72.4-8.41,38.25-14.22,77.19-4.14,116.33.77,3,2.12,8.88,6.72,5.86,56.93-37.36,127.59-54.86,168.21-115.87,14.6-21.93,29.2-43.85,43.88-65.72,1.38-2.06,3.32-3.74,4.99-5.59-.16,2.64.13,5.41-.55,7.91-9.1,33.38-21.98,65.2-39.47,95.11-1.1,1.87-1.36,4.23-2.01,6.36,2.07.21,4.15.69,6.2.6,35.06-1.38,69.73,2.32,104.2,8.26,2.05.35,3.9,1.92,5.84,2.92-1.97.52-3.94,1.49-5.91,1.5-99.03.56-183.32,42.95-264.86,93.17-6.21,3.82-.86,6.69,1.32,8.72,37.45,34.8,85.83,49.84,130.52,71.39,38.01,18.33,68.08-11.05,101.24-20.19,43.83-12.08,69.84-48.36,99.24-79.52,3.46-3.67.88-4.87-2.62-5.15-79.65-6.35-157.49-.18-231.3,33.58-2.03.93-3.65,2.73-5.47,4.13,2.08,1.31,4,3.01,6.25,3.86,53.51,20.15,106.14,10.01,158.62-4.73,1.15-.32,2.36-.44,3.54-.65-.84.78-1.56,1.83-2.55,2.29-58.86,27.54-119.61,41.6-182.02,14.84-22.24-9.54-11.02-25.32,3.45-35.17,47.69-32.44,102.8-41.69,158.31-49.46,42.73-5.98,85.3-5.26,127.58,3.47,10.11,2.09,20.83,5.91,23.52,17.12,2.54,10.57-7.09,16.54-13.01,23.81-45.8,56.23-101.49,98.02-171.83,118.7-.89.26-1.54,1.36-2.3,2.07,1.99,1.17,3.85,2.66,5.98,3.46,74.16,27.99,131.55,74.99,165.4,147.8,8.45,18.17,15.43,37.33,20.36,56.72,5.12,20.12-11.02,27.86-26.02,31.86-89.38,23.83-171.17-1.54-250.66-40.33-2.43-1.19-4.99-2.12-7.49-3.18-.5,2.47-1.3,4.92-1.45,7.41-3.6,60.44-4.32,121.16-16.61,180.76-2.66,12.88-5.75,27.12-21.48,30.79-17.06,3.98-30.32-3.73-38.32-18.14-47.82-86.15-94.14-172.96-99.91-274.41-.64-11.29-2.25-24.28,11.03-29.73,13.19-5.41,24.79-.25,33.56,10.4,34.89,42.38,75.82,82.18,64.18,145.12-.65,3.5-2.19,6.84-3.32,10.26-.55-3.16-1.5-6.31-1.61-9.48-1.47-43.67-28.91-72.3-57.87-100.04-.86-.83-2.41-.94-3.63-1.39-.15,1.58-.62,3.22-.39,4.74,11.28,73.19,47.61,136.72,78.26,202.44.5,1.08,1.97,1.7,2.98,2.54.74-1.64,1.93-3.22,2.15-4.92,8.07-63.24,11.14-126.85,12.14-190.51.22-14.08-15.86-19.1-25.23-27.01-38.04-32.07-69.91-73.69-124.19-81.42-9.42-1.34-11.3.04-12.79,9.76-15.45,100.6,8.22,193.09,56.41,280.79,1.05,1.91,1.02,4.41,1.5,6.64-1.68-1.5-3.6-2.82-5.01-4.54-24.47-29.74-46.66-61.09-65.94-94.46-2.38-4.12-3.65-6.65-7.24-.57-24.63,41.74-58.96,75.34-92.66,109.45-.8.81-2.16,1.06-3.26,1.58.47-1.53.65-3.23,1.45-4.56,14.77-24.62,28.04-50.34,44.79-73.53,26.27-36.37,32.27-76.92,31.9-120.03-.29-34.41,1.03-68.83,2.02-103.24.19-6.46-.83-8.62-7.76-6.72-60.77,16.63-110.62,51.54-149.82,98.96-11.55,13.98-8.12,40.86-10.3,61.95-5.42,52.47.05,104.35,10.13,155.87.43,2.21,1.72,4.26,2.61,6.39,1.5-.95,3.51-1.55,4.44-2.9,49.06-71.51,92.04-145.24,85.42-236.83-.16-2.26-.83-4.49-1.27-6.73-2.25.99-4.81,1.59-6.71,3.04-34.59,26.34-48.67,63.65-55.79,104.67-.29,1.69-1.29,3.26-1.96,4.88-.25-1.09-.73-2.18-.73-3.27,0-55.27,19.3-101.14,66.05-133.01,12.03-8.2,20.23-4.03,22.12,10.82,13.02,102.1-21.34,190.64-78.28,272.61-10.3,14.83-20.89,32.52-42.29,27.88-19.52-4.23-22.49-23.69-25.98-39.98-12.84-59.86-16.92-120.32-10.03-181.34.42-3.76-.32-7.65-.52-11.48-3.25,1.8-6.73,3.27-9.7,5.45-76.47,56.08-161.05,76.36-253.93,55.15-28.7-6.55-38.23-27.39-28.08-55.28,19.83-54.51,39.04-110.07,89.08-145.53,29.76-21.09,65.92-28.81,100.07-40.37,1.65-.56,3.06-1.8,4.59-2.72-1.51-.98-2.91-2.22-4.54-2.91-61.67-26.22-114.46-66.11-165.76-108.15-10.77-8.83-20.67-20.03-15.27-35.61,5.1-14.7,19.45-15.91,32.37-17.9,101.37-15.59,194.46,9.23,282.44,58.38,5.54,3.1,12.26,6.41,10.89,14.99-1.21,7.6-7.64,9.06-13.32,9.7-50.61,5.7-102.05,22.56-150.07-10.15-1.33-.9-2.74-1.68-4.12-2.52,1.47.32,3.11.31,4.37,1,47.02,25.89,94.51,9.34,141.89,1.59,1.17-.19,2.16-1.48,3.23-2.26-1.17-1.04-2.19-2.41-3.54-3.07-84.66-41.03-172.95-58.93-266.72-41.73-1.99.37-3.84,1.5-5.76,2.28.76,1.34,1.18,3.13,2.31,3.94,53.24,38.52,105.06,80.07,169.54,98.51,31.68,9.06,63.51-3.33,95.11-7.62,11.43-1.55,22.28-1.51,32.35,4.67,4.28,2.63,6.13-.32,8-3.04,15.47-22.48,30.95-44.96,46.15-67.63,1.11-1.66.8-6.59-.12-6.97-48.2-20.07-85.8-59.89-135.61-75.73-40.74-12.95-83.95-5.36-126.13-4.93-1.75.02-3.5-.56-5.25-.86,1.42-1.03,2.69-2.47,4.27-3.01,36.99-12.65,74.56-22.55,114.02-22.6,8.3-.01,5.65-3.62,3.32-7.65-17.69-30.5-31.99-62.55-43.92-95.68-1.1-3.05-1.54-6.32-2.29-9.49,2.4,2.29,5.2,4.28,7.14,6.91,15.78,21.38,33.39,41.73,46.69,64.58,34.98,60.14,101.23,77.62,152.77,115.06,4.86,3.53,5.69-2.1,7.04-5.02,21.22-45.85,7.02-91.31,1.02-137.71-4.71-36.41-22.15-56.63-52.9-73.6-47.44-26.17-94.14-53.38-145.22-72.04-3.06-1.12-8.82-3.44-6.06,3.43,35.49,88.24,78.04,170.81,172.31,211.24,8.38,3.59,9.88,1.74,10.71-6.89,5.01-52.18-31.99-78.45-64.95-107.49-7.05-6.21-12.89-13.79-19.29-20.74,7.35,5.04,14.55,10.32,22.07,15.08,46.69,29.56,86.14,63.72,81.5,126.37-1.26,16.96-4.16,26.79-26.62,19.36-114.47-37.87-169.2-128.57-209.46-232.59-5.16-13.32-6.21-27.42,5.88-38.32,11.27-10.16,24.75-7.29,37.17-3.25,60.53,19.69,115.41,50.89,169.25,84.13,2.09,1.29,4.64,1.85,6.98,2.75.32-2.47.91-4.93.93-7.4.09-14.25.04-28.5.04-42.75Zm177.17,10.74c-1.2-26.85,4.33-54.65-11.51-79.7-19.41-30.69-38.04-61.88-57.02-92.85-1.9-3.1-4.09-6.05-7.31-1.35-16.78,24.47-36.07,47.98-44.58,76.7-18.83,63.51-17.81,128.54-.75,191.55,26.74,98.79,22.33,189.68-42.12,274.91-72.66,96.09-160.28,169.66-277.09,204.92-1.51.46-3.18.38-4.77.55,1.23-1.18,2.29-2.67,3.73-3.48,62.09-35.18,116.79-79.56,164.79-132.28,1.29-1.42,1.94-3.42,2.89-5.15-2.02.28-4.13.27-6.04.88-23.97,7.7-47.48,17.43-71.94,22.9-88.96,19.92-156.35,62.89-178.45,158.15-2.32,10.01,1.82,10.14,8.39,11.17,94.39,14.7,176.47-17.76,239.86-82.24,92.08-93.67,196.7-137.75,326.43-112.9,103.89,19.9,189,77.63,270.12,141.96.98.78,1.33,2.34,1.98,3.53-1.99-.02-4.17.5-5.94-.14-21.24-7.58-42.99-14.07-63.5-23.28-56.71-25.47-112.89-52.12-169.33-78.19-2.19-1.01-4.95-.8-7.44-1.16,1.29,2.03,2.22,4.46,3.94,6.02,15.47,14.03,32.04,26.98,46.48,41.99,71,73.78,155.42,111.12,259.19,98.18,8.69-1.08,9.02-3.54,6.27-11.11-25.96-71.52-77.92-115.68-146.94-143.42-72.65-29.2-147.04-56.08-210.79-102.51-39.14-28.5-48.29-75.6-65.47-119.62-41.1-105.26-60.92-210.16-37.96-321.62,1.46-7.08,3.54-14.04,5.32-21.06.98,7.03,2.6,14.04,2.84,21.09,2.79,80.75,12.13,160.5,35.85,238.08.66,2.14,2.15,4.03,3.25,6.04.85-1.21,2.16-2.32,2.48-3.66,12.75-53.61,26.92-107.01,25.18-162.93Z"/>
      <path class="cls-1" d="m550.78,632.12c-37.5-2.31-73.5,6.58-109.58,14.95-2.63.61-5.52.12-8.29.13,1.29-2.32,2.16-5.02,3.92-6.89,33.5-35.51,49.05-80.04,63.19-125.3.66-2.11,1.93-4.02,2.92-6.02,1.22,1.67,2.68,3.21,3.62,5.03,21.21,41.11,45.29,80.18,78.96,112.55,1.23,1.18,1.79,3.06,2.66,4.61-1.79.31-3.58.88-5.38.89-10.67.08-21.35.04-32.02.04Z"/>
    </g>
  </g>
</svg>